<svg width="420" height="72" viewBox="0 0 420 72" fill="none" xmlns="http://www.w3.org/2000/svg">
<rect width="72" height="72" rx="36" fill="#3B48FA"/>
<path d="M53.5345 13.5592C36.5594 13.5592 22.5967 27.2019 21.118 44.5375C24.308 40.0161 27.8488 35.7527 31.7077 31.7868C31.7817 31.7043 31.872 31.6379 31.9728 31.5919C32.0736 31.5458 32.1829 31.5211 32.2937 31.5192C32.4045 31.5173 32.5145 31.5383 32.6169 31.5808C32.7192 31.6234 32.8117 31.6867 32.8885 31.7666C33.047 31.9323 33.1363 32.1522 33.1384 32.3814C33.1404 32.6107 33.055 32.8322 32.8995 33.0007C32.2503 33.6922 31.59 34.4076 30.928 35.134C30.5491 35.5478 30.1776 35.9598 29.8134 36.3644L29.613 36.5906C24.678 41.7476 20.6516 47.7029 17.7046 54.204C17.6132 54.4133 17.6058 54.6497 17.6838 54.8643C17.7619 55.079 17.9194 55.2554 18.1239 55.3571C18.2309 55.4078 18.3477 55.4342 18.466 55.4344C18.6297 55.4328 18.7893 55.3832 18.925 55.2916C19.0607 55.2 19.1665 55.0706 19.2292 54.9194C20.2023 52.6717 21.344 50.5009 22.6445 48.4254C28.464 48.2216 34.121 46.4536 39.0208 43.3072C43.9207 40.1608 47.8822 35.7524 50.4889 30.5454C50.5567 30.4111 50.5904 30.2622 50.5872 30.1118C50.584 29.9615 50.5439 29.8142 50.4706 29.6829C50.3985 29.5558 50.2943 29.4498 50.1684 29.3756C50.0426 29.3013 49.8994 29.2614 49.7533 29.2599H46.658L52.2049 25.9494C52.3798 25.8406 52.5102 25.673 52.5727 25.4768C53.7557 21.9139 54.3623 18.1851 54.3695 14.431C54.374 14.2048 54.2886 13.986 54.1321 13.8226C53.9756 13.6592 53.7607 13.5645 53.5345 13.5592V13.5592Z" fill="white"/>
<path d="M53.3486 56.4343H18.6513C18.0874 56.4343 17.6302 56.8835 17.6302 57.4376C17.6302 57.9916 18.0874 58.4408 18.6513 58.4408H53.3486C53.9125 58.4408 54.3697 57.9916 54.3697 57.4376C54.3697 56.8835 53.9125 56.4343 53.3486 56.4343Z" fill="url(#paint0_linear)"/>
<path d="M91.0341 53H98.4148V41.6818H104.619C112.648 41.6818 117.318 36.892 117.318 29.9205C117.318 22.983 112.733 18.0909 104.807 18.0909H91.0341V53ZM98.4148 35.767V24.125H103.392C107.653 24.125 109.716 26.4432 109.716 29.9205C109.716 33.3807 107.653 35.767 103.426 35.767H98.4148ZM133.486 53.5114C139.963 53.5114 144.327 50.358 145.349 45.5L138.634 45.0568C137.901 47.0511 136.026 48.0909 133.605 48.0909C129.974 48.0909 127.673 45.6875 127.673 41.7841V41.767H145.503V39.7727C145.503 30.875 140.116 26.4773 133.196 26.4773C125.491 26.4773 120.497 31.9489 120.497 40.0284C120.497 48.3295 125.423 53.5114 133.486 53.5114ZM127.673 37.267C127.827 34.2841 130.094 31.8977 133.315 31.8977C136.469 31.8977 138.651 34.1477 138.668 37.267H127.673ZM150.241 62.8182H157.503V48.8068H157.724C158.73 50.9886 160.929 53.4261 165.156 53.4261C171.122 53.4261 175.776 48.7045 175.776 39.9432C175.776 30.9432 170.918 26.4773 165.173 26.4773C160.793 26.4773 158.696 29.0852 157.724 31.2159H157.401V26.8182H150.241V62.8182ZM157.349 39.9091C157.349 35.2386 159.327 32.2557 162.855 32.2557C166.452 32.2557 168.361 35.375 168.361 39.9091C168.361 44.4773 166.418 47.6477 162.855 47.6477C159.361 47.6477 157.349 44.5795 157.349 39.9091ZM180.616 62.8182H187.878V48.8068H188.099C189.105 50.9886 191.304 53.4261 195.531 53.4261C201.497 53.4261 206.151 48.7045 206.151 39.9432C206.151 30.9432 201.293 26.4773 195.548 26.4773C191.168 26.4773 189.071 29.0852 188.099 31.2159H187.776V26.8182H180.616V62.8182ZM187.724 39.9091C187.724 35.2386 189.702 32.2557 193.23 32.2557C196.827 32.2557 198.736 35.375 198.736 39.9091C198.736 44.4773 196.793 47.6477 193.23 47.6477C189.736 47.6477 187.724 44.5795 187.724 39.9091ZM222.923 53.5114C229.401 53.5114 233.764 50.358 234.787 45.5L228.071 45.0568C227.338 47.0511 225.463 48.0909 223.043 48.0909C219.412 48.0909 217.111 45.6875 217.111 41.7841V41.767H234.94V39.7727C234.94 30.875 229.554 26.4773 222.634 26.4773C214.929 26.4773 209.935 31.9489 209.935 40.0284C209.935 48.3295 214.861 53.5114 222.923 53.5114ZM217.111 37.267C217.264 34.2841 219.531 31.8977 222.753 31.8977C225.906 31.8977 228.088 34.1477 228.105 37.267H217.111ZM239.679 53H246.94V38.1875C246.94 34.9659 249.293 32.75 252.497 32.75C253.503 32.75 254.884 32.9205 255.565 33.142V26.6989C254.918 26.5455 254.014 26.4432 253.281 26.4432C250.349 26.4432 247.946 28.1477 246.991 31.3864H246.719V26.8182H239.679V53ZM274.558 26.8182H269.632V20.5455H262.371V26.8182H258.791V32.2727H262.371V45.9091C262.337 51.0398 265.831 53.5795 271.098 53.358C272.973 53.2898 274.303 52.9148 275.036 52.6761L273.893 47.2727C273.536 47.3409 272.768 47.5114 272.087 47.5114C270.638 47.5114 269.632 46.9659 269.632 44.9545V32.2727H274.558V26.8182ZM283.771 62.8182C289.175 62.8182 292.038 60.0568 293.521 55.8295L303.697 26.8523L296.01 26.8182L290.538 46.0455H290.266L284.845 26.8182H277.209L286.601 53.75L286.175 54.858C285.22 57.3125 283.396 57.4318 280.839 56.6477L279.203 62.0682C280.243 62.5114 281.93 62.8182 283.771 62.8182ZM307.413 62.8182H314.675V48.8068H314.896C315.902 50.9886 318.101 53.4261 322.328 53.4261C328.294 53.4261 332.947 48.7045 332.947 39.9432C332.947 30.9432 328.089 26.4773 322.345 26.4773C317.964 26.4773 315.868 29.0852 314.896 31.2159H314.572V26.8182H307.413V62.8182ZM314.521 39.9091C314.521 35.2386 316.499 32.2557 320.027 32.2557C323.624 32.2557 325.533 35.375 325.533 39.9091C325.533 44.4773 323.589 47.6477 320.027 47.6477C316.533 47.6477 314.521 44.5795 314.521 39.9091ZM349.72 53.5114C356.197 53.5114 360.561 50.358 361.584 45.5L354.868 45.0568C354.135 47.0511 352.26 48.0909 349.839 48.0909C346.209 48.0909 343.908 45.6875 343.908 41.7841V41.767H361.737V39.7727C361.737 30.875 356.351 26.4773 349.43 26.4773C341.726 26.4773 336.732 31.9489 336.732 40.0284C336.732 48.3295 341.658 53.5114 349.72 53.5114ZM343.908 37.267C344.061 34.2841 346.328 31.8977 349.55 31.8977C352.703 31.8977 354.885 34.1477 354.902 37.267H343.908ZM370.72 53.4432C372.902 53.4432 374.794 51.6193 374.811 49.3523C374.794 47.1193 372.902 45.2955 370.72 45.2955C368.47 45.2955 366.612 47.1193 366.629 49.3523C366.612 51.6193 368.47 53.4432 370.72 53.4432ZM388.239 53.4943C392.108 53.4943 394.614 51.8068 395.892 49.3693H396.097V53H402.983V35.3409C402.983 29.1023 397.699 26.4773 391.869 26.4773C385.597 26.4773 381.472 29.4773 380.466 34.25L387.182 34.7955C387.676 33.0568 389.227 31.7784 391.835 31.7784C394.307 31.7784 395.722 33.0227 395.722 35.1705V35.2727C395.722 36.9602 393.932 37.1818 389.381 37.625C384.199 38.1023 379.545 39.8409 379.545 45.6875C379.545 50.8693 383.244 53.4943 388.239 53.4943ZM390.318 48.483C388.085 48.483 386.483 47.4432 386.483 45.4489C386.483 43.4034 388.17 42.3977 390.727 42.0398C392.312 41.8182 394.903 41.4432 395.773 40.8636V43.642C395.773 46.3864 393.506 48.483 390.318 48.483ZM408.616 53H415.878V26.8182H408.616V53ZM412.264 23.4432C414.429 23.4432 416.202 21.7898 416.202 19.7614C416.202 17.75 414.429 16.0966 412.264 16.0966C410.116 16.0966 408.344 17.75 408.344 19.7614C408.344 21.7898 410.116 23.4432 412.264 23.4432Z" fill="#0D0B1D"/>
<defs>
<linearGradient id="paint0_linear" x1="18.5487" y1="57.4376" x2="74.6866" y2="57.4376" gradientUnits="userSpaceOnUse">
<stop stop-color="#82E7B5"/>
<stop offset="1" stop-color="#82E6E7" stop-opacity="0.941"/>
</linearGradient>
</defs>
</svg>
